<?xml version="1.0" standalone="no"?>
<!DOCTYPE svg PUBLIC "-//W3C//DTD SVG 20010904//EN"
 "http://www.w3.org/TR/2001/REC-SVG-20010904/DTD/svg10.dtd">
<svg version="1.0" xmlns="http://www.w3.org/2000/svg"
 width="800.000000pt" height="800.000000pt" viewBox="0 0 800.000000 800.000000"
 preserveAspectRatio="xMidYMid meet">
<metadata>
Created by potrace 1.11, written by Peter Selinger 2001-2013
</metadata>
<g transform="translate(0.000000,800.000000) scale(0.100000,-0.100000)"
fill="#000000" stroke="none">
<path d="M5708 7175 c-32 -7 -97 -15 -145 -18 -48 -3 -111 -13 -138 -21 -102
-31 -197 -115 -256 -227 l-31 -57 -71 38 c-400 207 -881 130 -1190 -193 -191
-200 -282 -441 -273 -722 5 -138 9 -162 41 -267 28 -87 70 -175 122 -254 39
-59 40 -72 4 -164 -19 -50 -41 -141 -57 -237 -13 -75 -7 -237 11 -318 65 -293
313 -526 738 -695 33 -13 61 -29 64 -37 6 -14 -14 -70 -28 -79 -5 -3 -35 10
-67 29 l-58 34 1 -44 c1 -39 -1 -43 -19 -41 -17 2 -21 -3 -22 -25 -1 -15 -9
-36 -19 -47 -18 -20 -18 -20 -49 1 -115 76 -251 108 -299 69 -19 -16 -21 -26
-19 -80 4 -67 -13 -100 -49 -100 -25 0 -87 -56 -108 -99 -21 -41 -29 -74 -36
-149 -6 -61 -27 -117 -55 -147 -34 -36 -54 -147 -54 -300 -1 -125 2 -147 24
-209 30 -84 98 -164 168 -197 26 -12 49 -24 51 -26 8 -6 -54 -65 -96 -90 -82
-48 -184 -60 -271 -32 -20 6 -118 48 -217 92 -159 70 -342 140 -400 153 -142
31 -341 45 -415 29 -13 -2 -40 -7 -60 -10 -62 -9 -193 -60 -267 -103 -209
-122 -349 -281 -627 -716 -81 -125 -155 -217 -264 -323 -90 -89 -229 -193
-257 -193 -7 0 -15 -3 -17 -8 -4 -10 -123 -50 -173 -59 -108 -18 -200 6 -268
72 -47 46 -70 99 -73 173 -6 129 69 259 214 374 117 93 154 147 154 228 0 124
-113 199 -282 187 -133 -9 -248 -76 -366 -216 -67 -78 -145 -221 -170 -312 -8
-30 -18 -65 -22 -79 -10 -35 -8 -246 2 -295 11 -54 50 -156 83 -219 74 -138
243 -325 335 -370 196 -95 474 -85 708 26 123 59 252 157 470 358 302 279 615
497 833 581 29 11 61 24 72 29 44 20 154 43 224 45 210 7 358 -94 628 -430
126 -157 166 -198 247 -260 81 -60 202 -114 291 -130 17 -2 41 -7 55 -10 14
-3 57 -6 95 -6 276 -6 518 89 830 325 l90 68 75 -6 c41 -3 89 -8 105 -10 85
-12 170 -19 260 -21 100 -2 203 -13 218 -22 8 -5 212 -5 242 1 11 2 37 6 58
10 67 12 157 45 220 80 74 40 295 166 321 182 11 7 25 44 40 105 23 91 56 233
60 254 13 67 50 212 56 218 4 5 41 10 82 11 161 7 299 74 362 176 65 104 79
286 36 462 -19 78 -32 107 -62 145 -51 64 -65 97 -73 168 -4 43 -15 74 -38
109 -26 41 -31 58 -30 105 1 31 9 76 17 99 21 57 9 77 -52 96 -72 21 -144 11
-276 -40 -49 -19 -91 -32 -93 -30 -6 5 -16 84 -16 114 1 15 -5 22 -18 22 -16
0 -17 6 -12 45 5 44 5 45 -18 37 -13 -5 -35 -12 -49 -15 l-26 -6 22 85 c11 47
28 92 36 100 8 8 75 30 149 50 74 19 181 51 239 70 120 42 329 138 396 183 25
17 47 31 49 31 5 0 16 8 105 83 111 93 188 191 260 334 69 139 84 194 84 318
0 118 -4 150 -35 263 -10 40 -19 79 -19 88 0 9 25 41 56 72 146 146 225 296
282 535 14 57 16 295 3 346 -6 20 -17 65 -26 101 -20 77 -76 201 -130 285 -91
143 -287 302 -450 364 -33 13 -67 27 -76 31 -48 24 -193 44 -314 44 -246 0
-439 -70 -637 -231 -44 -36 -81 -63 -82 -61 -2 1 -9 26 -15 53 -33 132 -104
226 -200 261 -61 22 -273 28 -353 9z"/>
</g>
</svg>
