<svg version="1.1" id="Layer_1" className="icon-gnaas" xmlns="http://www.w3.org/2000/svg" xmlns:xlink="http://www.w3.org/1999/xlink" x="0px" y="0px"
	 viewBox="0 0 163.455 44.704" style="enable-background:new 0 0 163.455 44.704;" xml:space="preserve">
<g>
	<path style="fill:#060505;" d="M120.374,10.132c-0.135,0.173-0.112,0.39-0.159,0.586c-0.318,1.337-0.988,2.466-2.002,3.388
		c-0.158,0.144-0.215,0.262-0.146,0.474c0.196,0.599,0.304,1.219,0.37,1.843c0.095,0.904-0.254,1.709-0.634,2.493
		c-0.455,0.938-1.147,1.68-1.943,2.351c-1.411,1.19-3.107,1.734-4.83,2.235c-0.021,0.006-0.044,0.005-0.065,0.013
		c-0.362,0.127-0.871,0.064-1.075,0.335c-0.243,0.325-0.257,0.821-0.382,1.284c0.239-0.072,0.44-0.132,0.634-0.19
		c0.124,0.178-0.261,0.52,0.223,0.562c-0.175,0.314,0.169,0.636-0.078,1.018c0.445-0.174,0.805-0.327,1.174-0.455
		c0.483-0.168,0.973-0.283,1.488-0.126c0.291,0.089,0.471,0.224,0.315,0.559c-0.018,0.039-0.023,0.085-0.037,0.127
		c-0.159,0.48-0.218,0.922,0.153,1.371c0.227,0.275,0.258,0.672,0.252,1.043c-0.002,0.096-0.028,0.196,0.075,0.267
		c0.428,0.296,0.601,0.744,0.719,1.222c0.161,0.655,0.268,1.315,0.203,1.995c-0.136,1.426-1.022,2.213-2.385,2.435
		c-0.239,0.039-0.483,0.081-0.724,0.037c-0.208-0.038-0.257,0.053-0.299,0.237c-0.251,1.105-0.523,2.206-0.774,3.311
		c-0.048,0.21-0.133,0.343-0.328,0.447c-0.612,0.326-1.217,0.664-1.815,1.014c-1.112,0.65-2.311,0.819-3.571,0.682
		c-0.405-0.044-0.811-0.151-1.213-0.14c-0.948,0.027-1.879-0.127-2.812-0.23c-0.317-0.035-0.509,0.06-0.731,0.24
		c-1.198,0.972-2.486,1.811-4.003,2.168c-2.33,0.547-4.315-0.051-5.842-1.956c-0.614-0.765-1.19-1.563-1.913-2.235
		c-0.774-0.719-1.64-1.244-2.742-1.182c-0.71,0.04-1.378,0.279-2.029,0.554c-1.646,0.693-3.047,1.76-4.387,2.911
		c-0.812,0.697-1.598,1.424-2.406,2.125c-1.001,0.868-2.139,1.471-3.459,1.681c-1.955,0.31-3.5-0.325-4.617-1.99
		c-0.503-0.749-0.931-1.519-1.104-2.412c-0.011-0.059,0.01-0.139-0.08-0.16c0-0.464,0-0.927,0-1.391
		c0.119-0.104,0.093-0.258,0.127-0.389c0.326-1.275,0.941-2.385,1.981-3.2c0.677-0.53,1.442-0.97,2.359-0.717
		c0.506,0.14,0.987,0.403,1.144,0.969c0.148,0.532-0.075,0.974-0.453,1.339c-0.19,0.183-0.406,0.338-0.612,0.504
		c-0.568,0.458-1.03,0.993-1.265,1.699c-0.479,1.436,0.632,2.541,1.867,2.411c1.218-0.128,2.183-0.715,3.047-1.515
		c0.779-0.722,1.462-1.528,2.02-2.438c0.702-1.145,1.437-2.275,2.329-3.28c2.08-2.341,4.635-2.784,7.517-1.774
		c1.049,0.368,2.047,0.861,3.066,1.303c0.818,0.355,1.521,0.181,2.201-0.296c0.179-0.125,0.335-0.282,0.548-0.463
		c-0.776-0.187-1.239-0.662-1.509-1.337c-0.26-0.65-0.3-1.33-0.231-2.017c0.056-0.558,0.074-1.142,0.438-1.603
		c0.214-0.271,0.304-0.522,0.298-0.872c-0.01-0.528,0.173-1.021,0.56-1.407c0.099-0.099,0.228-0.22,0.353-0.231
		c0.432-0.038,0.405-0.319,0.375-0.617c-0.002-0.022-0.001-0.044-0.001-0.066c-0.01-0.533,0.143-0.671,0.697-0.613
		c0.507,0.052,0.941,0.289,1.364,0.553c0.096,0.06,0.282,0.196,0.293,0.143c0.035-0.158,0.28-0.208,0.194-0.412
		c-0.023-0.055-0.004-0.129-0.004-0.19c0.111-0.056,0.177,0.091,0.287,0.043c0-0.173,0-0.348,0-0.577
		c0.28,0.16,0.531,0.304,0.781,0.447c0.383-0.6,0.383-0.602-0.241-0.848c-0.926-0.364-1.832-0.78-2.605-1.408
		c-1.191-0.969-2.187-2.082-2.338-3.716c-0.115-1.243,0.073-2.441,0.546-3.592c0.081-0.198,0.075-0.326-0.051-0.502
		c-2.721-3.782-0.822-9.391,4.102-10.395c1.615-0.329,3.161-0.067,4.587,0.773c0.23,0.135,0.296,0.089,0.4-0.12
		c0.379-0.764,0.895-1.39,1.756-1.639c0.394-0.114,0.796-0.163,1.207-0.17c0.367-0.007,0.734-0.044,1.076-0.199
		c0.441,0,0.883,0,1.324,0c0.022,0.02,0.043,0.055,0.067,0.057c0.901,0.076,1.435,0.599,1.722,1.416
		c0.094,0.266,0.167,0.54,0.26,0.842c0.112-0.104,0.198-0.185,0.285-0.265c3.617-3.362,9.549-1.687,10.881,3.069
		c0.084,0.301,0.09,0.621,0.229,0.907C120.374,8.896,120.374,9.514,120.374,10.132z M107.815,26.967
		c0.201-0.058,0.395-0.131,0.536-0.318c-0.191,0.093-0.381,0.185-0.572,0.278c-0.096,0.023-0.189,0.051-0.277,0.155
		C107.651,27.091,107.735,27.034,107.815,26.967z M107.036,27.268c-0.286,0.08-0.552,0.202-0.802,0.36
		c0.3-0.058,0.575-0.178,0.843-0.317c0.095-0.025,0.189-0.052,0.275-0.156C107.203,27.146,107.12,27.207,107.036,27.268z
		 M108.909,26.486c0.313-0.122,0.626-0.243,0.939-0.365c-0.013-0.028-0.026-0.056-0.039-0.084c-0.299,0.16-0.671,0.164-0.906,0.455
		l0.01,0.007L108.909,26.486z M101.036,27.797c0.202,0.1,0.406,0.195,0.651,0.153c-0.193-0.069-0.386-0.139-0.578-0.208
		c-0.403-0.212-0.806-0.423-1.209-0.635C100.237,27.416,100.625,27.628,101.036,27.797z M109.18,23.987
		c-0.216-0.008-0.432-0.044-0.443-0.298c-0.012-0.281,0.235-0.312,0.435-0.362c0.492-0.122,0.987-0.226,1.478-0.352
		c1.734-0.445,3.398-1.043,4.823-2.178c1.567-1.248,2.945-3.332,2.084-5.842c-0.058-0.17-0.06-0.268-0.286-0.138
		c-2.581,1.481-5.095,1.371-7.526-0.357c-0.157-0.112-0.321-0.187-0.508-0.222c-1.6-0.301-3.203-0.306-4.803-0.021
		c-0.932,0.166-1.803,0.477-2.515,1.15c-0.296,0.28-0.644,0.491-1.021,0.682c-2.473,1.252-5.513,0.851-7.541-1.033
		c-0.084-0.078-0.146-0.191-0.297-0.221c-0.07,0.199-0.149,0.391-0.205,0.589c-0.366,1.301-0.491,2.605,0.071,3.884
		c0.49,1.115,1.44,1.816,2.391,2.487c0.657,0.464,1.417,0.752,2.174,1.026c0.581,0.21,1.176,0.368,1.773,0.522
		c0.207,0.054,0.303,0.191,0.241,0.395c-0.058,0.19-0.217,0.235-0.401,0.191c-0.139-0.033-0.276-0.075-0.415-0.109
		c-0.669-0.166-0.669-0.166-0.913,0.491c-0.004,0.01-0.009,0.02-0.015,0.029c-0.061,0.095-0.029,0.157,0.06,0.217
		c1.147,0.78,2.233,1.649,3.483,2.277c0.974,0.489,1.957,0.63,3.029,0.381c1.104-0.257,2.132-0.693,3.155-1.155
		c0.43-0.194,0.97-0.299,1.25-0.626c0.281-0.327,0.301-0.879,0.435-1.332C109.177,24.051,109.176,24.04,109.18,23.987z
		 M93.855,33.128c-0.059,0.031-0.092,0.038-0.111,0.059c-0.612,0.659-1.329,1.113-2.248,1.207c-0.145,0.015-0.289,0.129-0.44,0.065
		c-0.869-0.367-1.737-0.736-2.6-1.117c-1.032-0.454-2.078-0.841-3.217-0.938c-1.904-0.161-3.461,0.533-4.715,1.921
		c-0.923,1.023-1.69,2.168-2.406,3.345c-0.572,0.94-1.278,1.771-2.081,2.516c-0.98,0.91-2.081,1.583-3.46,1.707
		c-1.466,0.132-2.665-0.972-2.609-2.44c0.035-0.91,0.475-1.634,1.075-2.28c0.295-0.317,0.661-0.55,0.983-0.834
		c0.252-0.222,0.51-0.479,0.388-0.849c-0.128-0.389-0.5-0.459-0.856-0.515c-0.065-0.01-0.132-0.007-0.198-0.005
		c-0.698,0.03-1.289,0.325-1.755,0.818c-1.842,1.946-2.208,4.263-0.517,6.512c0.576,0.765,1.201,1.46,2.21,1.677
		c1.522,0.327,2.884-0.068,4.15-0.883c0.988-0.636,1.794-1.496,2.673-2.266c1.43-1.253,2.906-2.44,4.631-3.271
		c0.847-0.408,1.727-0.741,2.673-0.803c1.304-0.086,2.336,0.523,3.251,1.377c0.745,0.696,1.342,1.521,1.976,2.313
		c1.298,1.621,2.998,2.138,4.985,1.748c1.207-0.237,2.254-0.863,3.257-1.553c0.188-0.129,0.385-0.251,0.535-0.433
		c-0.099-0.097-0.216-0.065-0.322-0.076c-1.198-0.129-2.3-0.491-3.228-1.296c-0.575-0.499-1.155-0.992-1.74-1.479
		c-0.108-0.09-0.134-0.186-0.138-0.313c-0.016-0.529-0.037-1.059-0.057-1.588C93.915,34.687,93.885,33.919,93.855,33.128z
		 M105.429,40.134c0.748-0.011,1.416-0.102,2.051-0.398c0.771-0.36,1.479-0.831,2.232-1.221c0.129-0.067,0.158-0.181,0.185-0.295
		c0.24-1.017,0.474-2.035,0.715-3.052c0.034-0.144,0.018-0.222-0.144-0.265c-0.642-0.172-0.896-0.674-0.659-1.308
		c0.05-0.132,0.083-0.194-0.085-0.261c-0.813-0.324-0.721-1.163-0.176-1.541c0.139-0.096,0.167-0.188,0.13-0.357
		c-0.134-0.612,0.182-1.124,0.787-1.294c0.34-0.095,0.688-0.171,1.043-0.135c0.24,0.024,0.323-0.078,0.372-0.295
		c0.215-0.944,0.443-1.884,0.668-2.826c0.096-0.404,0.048-0.457-0.365-0.39c-0.043,0.007-0.084,0.025-0.127,0.035
		c-0.595,0.138-1.144,0.398-1.691,0.658c-1.846,0.877-3.706,1.707-5.793,1.802c-0.178,0.008-0.219,0.085-0.226,0.245
		c-0.015,0.341-0.042,0.681-0.075,1.021c-0.17,1.784-0.347,3.567-0.513,5.352c-0.126,1.358-0.235,2.718-0.366,4.075
		c-0.018,0.183,0.029,0.229,0.194,0.254C104.217,40.036,104.85,40.103,105.429,40.134z M94.484,33.823
		c0.068,0.613,0.065,1.385,0.07,2.157c0.004,0.608,0.101,1.134,0.684,1.52c0.611,0.405,1.095,0.991,1.737,1.365
		c1.088,0.635,2.297,0.709,3.514,0.744c0.221,0.006,0.205-0.134,0.219-0.282c0.068-0.745,0.14-1.489,0.215-2.233
		c0.126-1.247,0.253-2.494,0.383-3.74c0.078-0.754,0.162-1.508,0.241-2.262c0.074-0.711,0.142-1.422,0.22-2.133
		c0.021-0.191-0.044-0.271-0.235-0.311c-0.409-0.086-0.81-0.208-1.199-0.363c-1.397-0.558-2.605-1.425-3.811-2.299
		c-0.615-0.445-1.208-0.93-1.925-1.212c-0.407-0.16-0.479-0.096-0.418,0.322c0.019,0.13,0.026,0.263,0.031,0.394
		c0.026,0.782,0.054,1.564,0.07,2.346c0.004,0.182,0.055,0.259,0.247,0.247c0.242-0.014,0.486-0.014,0.728-0.001
		c0.63,0.033,1.338,0.46,1.155,1.305c-0.041,0.191,0.102,0.244,0.218,0.323c0.6,0.408,0.598,1.105-0.02,1.474
		c-0.168,0.101-0.198,0.158-0.113,0.348c0.275,0.612,0.003,1.162-0.62,1.298c-0.268,0.058-0.54,0.105-0.812,0.144
		C94.476,33.056,94.476,33.053,94.484,33.823z M103.853,9.51c-0.081-0.389-0.134-0.727-0.224-1.055
		c-0.707-2.565-3.036-4.334-5.73-4.365c-3.818-0.043-6.834,3.489-5.886,7.471c0.687,2.886,3.197,4.711,6.207,4.596
		c2.746-0.104,5.139-2.259,5.555-5.091c0.081-0.548,0.317-0.817,0.739-1.076c1.14-0.699,1.961-0.695,3.066,0.052
		c0.175,0.118,0.275,0.248,0.324,0.46c0.711,3.072,3.455,5.019,6.574,4.675c3.453-0.381,5.893-3.731,5.2-7.139
		c-0.563-2.767-2.717-4.664-5.547-4.883c-2.991-0.232-5.804,1.98-6.279,4.948c-0.068,0.425-0.095,0.857-0.144,1.313
		c-0.368-0.273-0.699-0.518-1.072-0.715c-0.39-0.206-0.771-0.197-1.128-0.044C104.95,8.896,104.396,9.153,103.853,9.51z
		 M108.477,5.061c-0.063-0.228-0.132-0.483-0.206-0.736c-0.346-1.196-0.785-1.513-2.029-1.466c-0.099,0.004-0.198,0.016-0.296,0.028
		c-0.448,0.057-0.897,0.171-1.343,0.162c-1.202-0.024-2.054,0.464-2.555,1.566c-0.084,0.185-0.102,0.289,0.077,0.439
		c1.005,0.844,1.696,1.903,2.067,3.162c0.066,0.223,0.111,0.281,0.339,0.164c0.813-0.419,1.654-0.611,2.536-0.203
		c0.199,0.092,0.168-0.079,0.182-0.165c0.167-0.983,0.546-1.877,1.123-2.689C108.422,5.253,108.491,5.188,108.477,5.061z
		 M102.373,39.744c0.267,0.031,0.307-0.116,0.323-0.341c0.059-0.799,0.135-1.596,0.211-2.394c0.079-0.819,0.169-1.636,0.247-2.455
		c0.075-0.786,0.136-1.574,0.214-2.361c0.098-0.982,0.209-1.962,0.311-2.944c0.011-0.108,0.024-0.229-0.144-0.241
		c-0.318-0.022-0.635-0.048-0.953-0.071c-0.123-0.009-0.209,0.016-0.223,0.17c-0.061,0.666-0.132,1.332-0.198,1.997
		c-0.072,0.732-0.138,1.464-0.213,2.195c-0.102,0.992-0.212,1.983-0.316,2.975c-0.087,0.828-0.154,1.659-0.261,2.485
		c-0.105,0.809-0.123,0.806,0.679,0.917C102.16,39.691,102.266,39.721,102.373,39.744z M108.704,13.583
		c0-0.056,0.008-0.083-0.001-0.097c-0.05-0.072-0.104-0.141-0.157-0.21c-0.532-0.7-0.953-1.459-1.15-2.319
		c-0.075-0.329-0.25-0.522-0.54-0.642c-0.152-0.063-0.302-0.134-0.459-0.182c-0.644-0.196-1.149,0.124-1.661,0.442
		c-0.201,0.125-0.323,0.258-0.338,0.515c-0.015,0.261-0.095,0.518-0.157,0.775c-0.177,0.733-0.511,1.398-0.972,2.1
		C105.103,13.396,106.899,13.433,108.704,13.583z M93.61,26.87c0-0.261-0.003-0.515,0.001-0.768
		c0.004-0.245-0.103-0.266-0.281-0.145c-0.131,0.089-0.224,0.212-0.289,0.355c-0.191,0.416-0.234,0.845-0.1,1.287
		c0.038,0.127,0.091,0.248-0.105,0.311c-0.315,0.101-0.464,0.36-0.543,0.659c-0.197,0.745-0.248,1.503-0.104,2.26
		c0.092,0.484,0.268,0.996,0.737,1.197c0.52,0.223,1.063,0.481,1.669,0.391c0.36-0.053,0.718-0.112,1.077-0.173
		c0.151-0.026,0.305-0.047,0.31-0.265c0.004-0.208-0.11-0.294-0.284-0.349c-0.235-0.074-0.473-0.088-0.718-0.078
		c-0.512,0.019-1.025,0.039-1.518-0.148c-0.113-0.043-0.226-0.085-0.337-0.132c-0.197-0.084-0.319-0.229-0.221-0.441
		c0.1-0.218,0.277-0.187,0.477-0.108c0.936,0.369,1.878,0.283,2.815-0.001c0.119-0.036,0.267-0.091,0.259-0.26
		c-0.008-0.164-0.129-0.247-0.269-0.302c-0.22-0.085-0.451-0.107-0.683-0.101c-0.596,0.013-1.19-0.002-1.782-0.084
		c-0.146-0.02-0.281,0.006-0.415,0.074c-0.208,0.106-0.363,0.036-0.441-0.179c-0.073-0.204,0.017-0.346,0.209-0.415
		c0.197-0.071,0.406-0.12,0.616-0.09c0.592,0.084,1.186,0.109,1.781,0.082c0.111-0.005,0.287,0.126,0.331-0.082
		c0.043-0.205,0.065-0.433-0.173-0.551c-0.126-0.063-0.27-0.123-0.406-0.124c-0.647-0.003-1.304-0.058-1.905,0.267
		c-0.165,0.089-0.31,0.058-0.405-0.089c-0.108-0.166-0.044-0.317,0.107-0.431c0.152-0.115,0.327-0.18,0.512-0.221
		c0.08-0.018,0.167-0.037,0.14-0.141C93.571,27.671,93.717,27.262,93.61,26.87z M112.847,28.283
		c-0.121,0.504-0.221,0.974-0.352,1.436c-0.071,0.249-0.027,0.375,0.243,0.41c0.093,0.012,0.183,0.072,0.269,0.12
		c0.163,0.09,0.199,0.237,0.128,0.395c-0.068,0.152-0.219,0.209-0.362,0.143c-0.595-0.275-1.212-0.158-1.825-0.128
		c-0.191,0.009-0.369,0.07-0.526,0.177c-0.197,0.134-0.196,0.32-0.14,0.531c0.067,0.252,0.237,0.09,0.347,0.084
		c0.583-0.029,1.165-0.083,1.734-0.226c0.222-0.056,0.439-0.019,0.655,0.028c0.209,0.046,0.306,0.197,0.252,0.391
		c-0.054,0.196-0.189,0.336-0.422,0.22c-0.148-0.073-0.294-0.068-0.449-0.033c-0.56,0.127-1.129,0.19-1.702,0.228
		c-0.252,0.017-0.502,0.065-0.732,0.184c-0.127,0.066-0.217,0.159-0.216,0.306c0.001,0.152,0.125,0.201,0.243,0.23
		c0.935,0.226,1.857,0.206,2.747-0.189c0.206-0.091,0.412-0.258,0.57,0.011c0.167,0.285-0.076,0.414-0.283,0.527
		c-0.115,0.063-0.239,0.111-0.363,0.158c-0.438,0.166-0.897,0.216-1.361,0.225c-0.279,0.006-0.545,0.059-0.796,0.188
		c-0.161,0.082-0.16,0.215-0.142,0.366c0.014,0.124,0.081,0.166,0.195,0.178c0.549,0.059,1.109,0.174,1.647,0.043
		c1.008-0.246,1.577-0.489,1.765-1.471c0.176-0.921,0.037-1.82-0.33-2.681c-0.09-0.211-0.248-0.369-0.478-0.423
		c-0.201-0.047-0.214-0.145-0.171-0.332C113.075,29.018,113.039,28.659,112.847,28.283z M96.802,24.285
		c-0.058,0.219,0.061,0.257,0.148,0.318c0.695,0.484,1.395,0.962,2.083,1.455c1.098,0.787,2.256,1.448,3.577,1.786
		c0.07,0.018,0.15,0.099,0.189-0.014c0.034-0.099-0.069-0.122-0.139-0.145c-0.312-0.104-0.63-0.194-0.939-0.308
		c-1.254-0.466-2.307-1.267-3.384-2.029C97.837,24.994,97.33,24.65,96.802,24.285z M103.531,27.832
		c0.518-0.055,1.018-0.127,1.509-0.261c1.571-0.426,2.976-1.256,4.486-1.828c0.073-0.028,0.161-0.074,0.12-0.164
		c-0.048-0.108-0.139-0.019-0.193,0.005c-0.808,0.348-1.615,0.698-2.417,1.059c-1.119,0.504-2.265,0.91-3.496,1.036
		c-0.112,0.011-0.336-0.078-0.321,0.1C103.236,27.969,103.437,27.753,103.531,27.832z M109.879,26.524
		c-1.213,0.442-2.347,1.056-3.561,1.526c0.089,0.061,0.157,0.042,0.218,0.025c1.116-0.311,2.169-0.783,3.216-1.27
		C109.856,26.756,109.941,26.688,109.879,26.524z M105.14,27.945c-0.286,0.065-0.572,0.13-0.858,0.195
		C104.596,28.186,104.885,28.134,105.14,27.945z M107.418,27.142c0.014-0.008,0.028-0.016,0.043-0.024
		c-0.007-0.007-0.016-0.022-0.022-0.021c-0.016,0.003-0.03,0.013-0.044,0.021C107.402,27.126,107.409,27.134,107.418,27.142z"/>
	<path style="fill:#FDD3D3;" d="M109.18,23.987c-0.004,0.053-0.002,0.065-0.005,0.075c-0.134,0.453-0.154,1.005-0.435,1.332
		c-0.28,0.326-0.82,0.432-1.25,0.626c-1.023,0.461-2.051,0.898-3.155,1.155c-1.073,0.25-2.055,0.108-3.029-0.381
		c-1.25-0.627-2.336-1.497-3.483-2.277c-0.089-0.061-0.121-0.122-0.06-0.217c0.006-0.009,0.011-0.019,0.015-0.029
		c0.243-0.657,0.244-0.658,0.913-0.491c0.139,0.034,0.276,0.076,0.415,0.109c0.183,0.044,0.343,0,0.401-0.191
		c0.062-0.203-0.034-0.341-0.241-0.395c-0.597-0.155-1.192-0.312-1.773-0.522c-0.757-0.274-1.517-0.562-2.174-1.026
		c-0.951-0.671-1.901-1.372-2.391-2.487c-0.562-1.279-0.437-2.582-0.071-3.884c0.056-0.198,0.135-0.39,0.205-0.589
		c0.151,0.03,0.213,0.143,0.297,0.221c2.028,1.884,5.068,2.285,7.541,1.033c0.377-0.191,0.725-0.402,1.021-0.682
		c0.712-0.673,1.584-0.985,2.515-1.15c1.6-0.285,3.203-0.28,4.803,0.021c0.187,0.035,0.351,0.111,0.508,0.222
		c2.431,1.728,4.945,1.838,7.526,0.357c0.226-0.13,0.227-0.032,0.286,0.138c0.861,2.51-0.516,4.594-2.084,5.842
		c-1.425,1.134-3.089,1.733-4.823,2.178c-0.49,0.126-0.986,0.23-1.478,0.352c-0.2,0.049-0.448,0.08-0.435,0.362
		C108.748,23.942,108.964,23.978,109.18,23.987z M114.752,17.519c0-0.099,0.008-0.199-0.002-0.297
		c-0.017-0.165-0.114-0.26-0.28-0.269c-0.169-0.009-0.267,0.088-0.307,0.243c-0.016,0.063-0.013,0.131-0.012,0.197
		c0.018,0.699-0.271,1.256-0.787,1.71c-0.489,0.43-1.072,0.686-1.679,0.895c-1.143,0.394-2.33,0.565-3.525,0.693
		c-2.062,0.222-4.124,0.442-6.197,0.104c-1.116-0.182-2.201-0.453-3.175-1.05c-0.816-0.5-1.395-1.174-1.478-2.18
		c-0.017-0.201-0.094-0.383-0.342-0.356c-0.266,0.029-0.282,0.223-0.26,0.443c0.101,1.009,0.61,1.773,1.407,2.367
		c0.535,0.398,1.13,0.68,1.757,0.896c0.124,0.043,0.208,0.064,0.105,0.215c-0.165,0.242-0.173,0.521-0.139,0.797
		c0.1,0.819,0.347,1.589,0.814,2.278c0.694,1.025,1.658,1.234,2.716,0.582c1.026-0.631,1.743-1.538,2.283-2.598
		c0.064-0.126,0.13-0.268,0.135-0.404c0.009-0.238,0.131-0.271,0.331-0.289c1.394-0.121,2.791-0.225,4.165-0.506
		c1.159-0.237,2.296-0.538,3.267-1.261C114.29,19.178,114.722,18.456,114.752,17.519z M108.585,15.703
		c0.007-0.455-0.373-0.848-0.83-0.858c-0.455-0.01-0.842,0.37-0.851,0.834c-0.008,0.462,0.362,0.846,0.827,0.858
		C108.179,16.548,108.577,16.159,108.585,15.703z M105.875,15.984c0.002-0.468-0.363-0.834-0.835-0.838
		c-0.471-0.004-0.836,0.358-0.838,0.832c-0.002,0.467,0.367,0.842,0.832,0.843C105.497,16.822,105.873,16.448,105.875,15.984z"/>
	<path style="fill:#FDD3D3;" d="M93.855,33.128c0.03,0.791,0.06,1.559,0.088,2.327c0.02,0.529,0.041,1.058,0.057,1.588
		c0.004,0.126,0.029,0.223,0.138,0.313c0.585,0.487,1.165,0.981,1.74,1.479c0.928,0.805,2.03,1.167,3.228,1.296
		c0.105,0.011,0.223-0.021,0.322,0.076c-0.15,0.182-0.348,0.304-0.535,0.433c-1.003,0.69-2.05,1.316-3.257,1.553
		c-1.987,0.391-3.687-0.127-4.985-1.748c-0.634-0.792-1.23-1.617-1.976-2.313c-0.915-0.855-1.947-1.463-3.251-1.377
		c-0.946,0.062-1.826,0.395-2.673,0.803c-1.725,0.831-3.201,2.018-4.631,3.271c-0.879,0.77-1.685,1.63-2.673,2.266
		c-1.265,0.815-2.627,1.21-4.15,0.883c-1.009-0.217-1.634-0.911-2.21-1.677c-1.692-2.249-1.325-4.567,0.517-6.512
		c0.467-0.493,1.057-0.788,1.755-0.818c0.066-0.003,0.134-0.006,0.198,0.005c0.356,0.055,0.728,0.126,0.856,0.515
		c0.121,0.37-0.136,0.627-0.388,0.849c-0.322,0.284-0.688,0.517-0.983,0.834c-0.601,0.646-1.041,1.37-1.075,2.28
		c-0.056,1.468,1.143,2.572,2.609,2.44c1.379-0.124,2.48-0.797,3.46-1.707c0.803-0.745,1.51-1.576,2.081-2.516
		c0.716-1.177,1.483-2.322,2.406-3.345c1.254-1.388,2.811-2.082,4.715-1.921c1.14,0.096,2.186,0.483,3.217,0.938
		c0.863,0.38,1.731,0.75,2.6,1.117c0.151,0.064,0.295-0.05,0.44-0.065c0.919-0.094,1.636-0.548,2.248-1.207
		C93.763,33.167,93.796,33.159,93.855,33.128z"/>
	<path style="fill:#772121;" d="M105.429,40.134c-0.578-0.031-1.212-0.099-1.843-0.196c-0.165-0.025-0.212-0.072-0.194-0.254
		c0.131-1.357,0.239-2.717,0.366-4.075c0.166-1.784,0.344-3.568,0.513-5.352c0.032-0.34,0.06-0.68,0.075-1.021
		c0.007-0.159,0.049-0.237,0.226-0.245c2.088-0.095,3.947-0.925,5.793-1.802c0.547-0.26,1.096-0.519,1.691-0.658
		c0.043-0.01,0.084-0.028,0.127-0.035c0.413-0.067,0.462-0.014,0.365,0.39c-0.225,0.941-0.453,1.882-0.668,2.826
		c-0.049,0.217-0.132,0.32-0.372,0.295c-0.355-0.036-0.703,0.039-1.043,0.135c-0.606,0.17-0.922,0.682-0.787,1.294
		c0.037,0.169,0.008,0.261-0.13,0.357c-0.546,0.378-0.638,1.217,0.176,1.541c0.168,0.067,0.135,0.129,0.085,0.261
		c-0.237,0.633,0.017,1.135,0.659,1.308c0.162,0.043,0.178,0.122,0.144,0.265c-0.241,1.017-0.474,2.035-0.715,3.052
		c-0.027,0.114-0.056,0.228-0.185,0.295c-0.753,0.39-1.461,0.862-2.232,1.221C106.845,40.033,106.177,40.123,105.429,40.134z"/>
	<path style="fill:#772121;" d="M94.484,33.823c-0.008-0.77-0.008-0.767,0.577-0.85c0.272-0.039,0.543-0.086,0.812-0.144
		c0.623-0.135,0.896-0.686,0.62-1.298c-0.085-0.19-0.055-0.247,0.113-0.348c0.617-0.369,0.62-1.065,0.02-1.474
		c-0.116-0.079-0.259-0.132-0.218-0.323c0.183-0.846-0.525-1.272-1.155-1.305c-0.242-0.013-0.486-0.013-0.728,0.001
		c-0.192,0.011-0.244-0.066-0.247-0.247c-0.016-0.782-0.044-1.564-0.07-2.346c-0.004-0.132-0.012-0.264-0.031-0.394
		c-0.061-0.418,0.011-0.483,0.418-0.322c0.717,0.282,1.31,0.767,1.925,1.212c1.206,0.874,2.415,1.741,3.811,2.299
		c0.39,0.156,0.79,0.278,1.199,0.363c0.191,0.04,0.257,0.119,0.235,0.311c-0.078,0.71-0.146,1.422-0.22,2.133
		c-0.079,0.754-0.163,1.508-0.241,2.262c-0.129,1.247-0.257,2.493-0.383,3.74c-0.075,0.744-0.147,1.488-0.215,2.233
		c-0.013,0.148,0.002,0.289-0.219,0.282c-1.217-0.035-2.427-0.11-3.514-0.744c-0.642-0.375-1.126-0.96-1.737-1.365
		c-0.583-0.386-0.68-0.912-0.684-1.52C94.549,35.208,94.552,34.436,94.484,33.823z"/>
	<path style="fill:#FAFAFA;" d="M103.853,9.51c0.543-0.357,1.097-0.614,1.655-0.853c0.358-0.153,0.738-0.162,1.128,0.044
		c0.373,0.197,0.705,0.442,1.072,0.715c0.049-0.456,0.075-0.888,0.144-1.313c0.476-2.968,3.288-5.18,6.279-4.948
		c2.83,0.219,4.984,2.116,5.547,4.883c0.693,3.407-1.747,6.758-5.2,7.139c-3.119,0.344-5.863-1.602-6.574-4.675
		c-0.049-0.212-0.149-0.342-0.324-0.46c-1.105-0.746-1.926-0.751-3.066-0.052c-0.422,0.259-0.658,0.528-0.739,1.076
		c-0.417,2.832-2.809,4.987-5.555,5.091c-3.01,0.114-5.52-1.711-6.207-4.596c-0.948-3.982,2.068-7.515,5.886-7.471
		c2.694,0.031,5.023,1.8,5.73,4.365C103.719,8.783,103.771,9.121,103.853,9.51z M113.838,4.001
		c-2.808-0.015-5.076,2.257-5.103,5.113c-0.027,2.777,2.253,5.1,5.027,5.122c2.827,0.022,5.139-2.249,5.153-5.062
		C118.928,6.311,116.675,4.016,113.838,4.001z M102.996,10.082c-0.008-2.871-2.268-5.137-5.113-5.127
		c-2.833,0.01-5.071,2.301-5.059,5.177c0.012,2.801,2.306,5.059,5.126,5.044C100.74,15.16,103.004,12.875,102.996,10.082z"/>
	<path style="fill:#FDD3D3;" d="M108.477,5.061c0.014,0.127-0.055,0.192-0.105,0.262c-0.577,0.812-0.956,1.706-1.123,2.689
		c-0.015,0.086,0.017,0.257-0.182,0.165c-0.882-0.408-1.723-0.216-2.536,0.203c-0.228,0.118-0.273,0.06-0.339-0.164
		c-0.371-1.259-1.062-2.318-2.067-3.162c-0.178-0.15-0.161-0.254-0.077-0.439c0.501-1.103,1.353-1.591,2.555-1.566
		c0.446,0.009,0.895-0.105,1.343-0.162c0.098-0.012,0.197-0.024,0.296-0.028c1.244-0.048,1.684,0.27,2.029,1.466
		C108.345,4.578,108.414,4.833,108.477,5.061z"/>
	<path style="fill:#4F1616;" d="M102.373,39.744c-0.107-0.023-0.213-0.052-0.322-0.067c-0.802-0.111-0.784-0.108-0.679-0.917
		c0.108-0.826,0.174-1.656,0.261-2.485c0.104-0.992,0.214-1.983,0.316-2.975c0.075-0.731,0.141-1.463,0.213-2.195
		c0.065-0.666,0.137-1.331,0.198-1.997c0.014-0.154,0.101-0.179,0.223-0.17c0.318,0.023,0.635,0.049,0.953,0.071
		c0.168,0.012,0.155,0.133,0.144,0.241c-0.102,0.981-0.213,1.962-0.311,2.944c-0.079,0.786-0.139,1.574-0.214,2.361
		c-0.078,0.819-0.168,1.636-0.247,2.455c-0.076,0.797-0.153,1.595-0.211,2.394C102.68,39.627,102.641,39.775,102.373,39.744z"/>
	<path style="fill:#FBD2D2;" d="M108.704,13.583c-1.805-0.15-3.601-0.188-5.434,0.38c0.461-0.701,0.794-1.367,0.972-2.1
		c0.062-0.256,0.142-0.514,0.157-0.775c0.015-0.257,0.137-0.389,0.338-0.515c0.511-0.318,1.017-0.639,1.661-0.442
		c0.157,0.048,0.307,0.119,0.459,0.182c0.29,0.121,0.465,0.313,0.54,0.642c0.197,0.86,0.618,1.619,1.15,2.319
		c0.053,0.07,0.107,0.138,0.157,0.21C108.712,13.5,108.704,13.527,108.704,13.583z"/>
	<path style="fill:#F8CFCF;" d="M93.61,26.87c0.107,0.393-0.039,0.801,0.062,1.202c0.026,0.103-0.061,0.123-0.14,0.141
		c-0.184,0.041-0.36,0.106-0.512,0.221c-0.151,0.114-0.215,0.265-0.107,0.431c0.095,0.147,0.24,0.178,0.405,0.089
		c0.601-0.325,1.258-0.27,1.905-0.267c0.136,0.001,0.28,0.061,0.406,0.124c0.238,0.118,0.216,0.346,0.173,0.551
		c-0.044,0.208-0.221,0.077-0.331,0.082c-0.596,0.027-1.19,0.002-1.781-0.082c-0.21-0.03-0.418,0.019-0.616,0.09
		c-0.192,0.069-0.282,0.211-0.209,0.415c0.078,0.216,0.233,0.285,0.441,0.179c0.134-0.068,0.269-0.095,0.415-0.074
		c0.592,0.082,1.186,0.097,1.782,0.084c0.232-0.005,0.463,0.016,0.683,0.101c0.14,0.055,0.261,0.138,0.269,0.302
		c0.008,0.169-0.139,0.224-0.259,0.26c-0.937,0.284-1.879,0.369-2.815,0.001c-0.2-0.079-0.377-0.11-0.477,0.108
		c-0.098,0.213,0.024,0.357,0.221,0.441c0.111,0.047,0.224,0.089,0.337,0.132c0.492,0.187,1.006,0.167,1.518,0.148
		c0.245-0.009,0.483,0.004,0.718,0.078c0.173,0.055,0.288,0.141,0.284,0.349c-0.005,0.218-0.159,0.239-0.31,0.265
		c-0.358,0.062-0.717,0.12-1.077,0.173c-0.606,0.09-1.149-0.168-1.669-0.391c-0.469-0.201-0.644-0.713-0.737-1.197
		c-0.145-0.757-0.093-1.515,0.104-2.26c0.079-0.299,0.228-0.557,0.543-0.659c0.196-0.063,0.143-0.184,0.105-0.311
		c-0.133-0.442-0.091-0.871,0.1-1.287c0.065-0.142,0.158-0.266,0.289-0.355c0.178-0.12,0.285-0.099,0.281,0.145
		C93.607,26.355,93.61,26.609,93.61,26.87z"/>
	<path style="fill:#F8CFCF;" d="M112.847,28.283c0.192,0.376,0.228,0.735,0.145,1.096c-0.043,0.186-0.03,0.285,0.171,0.332
		c0.231,0.054,0.389,0.212,0.478,0.423c0.367,0.861,0.506,1.761,0.33,2.681c-0.188,0.982-0.757,1.225-1.765,1.471
		c-0.537,0.131-1.098,0.016-1.647-0.043c-0.114-0.012-0.181-0.054-0.195-0.178c-0.018-0.151-0.018-0.284,0.142-0.366
		c0.251-0.129,0.516-0.182,0.796-0.188c0.464-0.009,0.923-0.059,1.361-0.225c0.123-0.047,0.247-0.095,0.363-0.158
		c0.207-0.113,0.45-0.242,0.283-0.527c-0.158-0.269-0.365-0.102-0.57-0.011c-0.89,0.395-1.812,0.415-2.747,0.189
		c-0.119-0.029-0.242-0.078-0.243-0.23c-0.001-0.147,0.089-0.241,0.216-0.306c0.23-0.119,0.48-0.167,0.732-0.184
		c0.573-0.039,1.142-0.101,1.702-0.228c0.155-0.035,0.301-0.04,0.449,0.033c0.234,0.116,0.368-0.024,0.422-0.22
		c0.054-0.195-0.043-0.346-0.252-0.391c-0.216-0.047-0.433-0.084-0.655-0.028c-0.569,0.143-1.151,0.197-1.734,0.226
		c-0.11,0.005-0.28,0.168-0.347-0.084c-0.055-0.21-0.056-0.397,0.14-0.531c0.157-0.107,0.335-0.167,0.526-0.177
		c0.613-0.03,1.23-0.147,1.825,0.128c0.143,0.066,0.294,0.009,0.362-0.143c0.071-0.158,0.035-0.305-0.128-0.395
		c-0.086-0.048-0.175-0.108-0.269-0.12c-0.269-0.035-0.313-0.161-0.243-0.41C112.626,29.258,112.726,28.787,112.847,28.283z"/>
	<path style="fill:#E4E4E4;" d="M96.802,24.285c0.528,0.365,1.035,0.709,1.536,1.063c1.077,0.762,2.131,1.563,3.384,2.029
		c0.309,0.115,0.626,0.204,0.939,0.308c0.069,0.023,0.173,0.046,0.139,0.145c-0.039,0.113-0.12,0.032-0.189,0.014
		c-1.321-0.338-2.479-0.999-3.577-1.786c-0.689-0.493-1.388-0.971-2.083-1.455C96.863,24.542,96.744,24.504,96.802,24.285z"/>
	<path style="fill:#E4E4E4;" d="M103.531,27.832c-0.094-0.079-0.296,0.138-0.312-0.053c-0.015-0.179,0.208-0.089,0.321-0.1
		c1.231-0.125,2.377-0.532,3.496-1.036c0.802-0.361,1.609-0.711,2.417-1.059c0.054-0.023,0.145-0.112,0.193-0.005
		c0.04,0.09-0.047,0.136-0.12,0.164c-1.51,0.573-2.915,1.402-4.486,1.828C104.549,27.704,104.049,27.777,103.531,27.832z"/>
	<path style="fill:#E4E4E4;" d="M109.879,26.524c0.062,0.164-0.023,0.232-0.127,0.28c-1.046,0.488-2.099,0.96-3.216,1.27
		c-0.062,0.017-0.129,0.037-0.218-0.025C107.532,27.58,108.666,26.966,109.879,26.524z"/>
	<path style="fill:#F8CFCF;" d="M101.036,27.797c-0.412-0.17-0.799-0.381-1.137-0.69c0.403,0.212,0.806,0.423,1.209,0.635
		C101.084,27.76,101.06,27.779,101.036,27.797z"/>
	<path style="fill:#E4E4E4;" d="M105.14,27.945c-0.255,0.189-0.544,0.241-0.858,0.195C104.568,28.075,104.854,28.01,105.14,27.945z"
		/>
	<path style="fill:#F8CFCF;" d="M108.903,26.494c0.236-0.293,0.608-0.297,0.907-0.457c0.013,0.028,0.026,0.056,0.039,0.084
		c-0.313,0.122-0.626,0.243-0.939,0.365L108.903,26.494z"/>
	<path style="fill:#F8CFCF;" d="M107.077,27.311c-0.268,0.139-0.543,0.259-0.843,0.317c0.251-0.158,0.517-0.28,0.802-0.36
		C107.054,27.278,107.067,27.293,107.077,27.311z"/>
	<path style="fill:#E4E4E4;" d="M101.036,27.797c0.024-0.019,0.048-0.037,0.073-0.056c0.193,0.069,0.386,0.139,0.578,0.208
		C101.442,27.993,101.239,27.898,101.036,27.797z"/>
	<path style="fill:#F8CFCF;" d="M107.779,26.928c0.191-0.093,0.381-0.185,0.572-0.278c-0.14,0.187-0.334,0.259-0.536,0.318
		C107.799,26.958,107.787,26.945,107.779,26.928z"/>
	<path style="fill:#E4E4E4;" d="M107.815,26.967c-0.08,0.066-0.164,0.123-0.313,0.115c0.087-0.104,0.181-0.132,0.277-0.155
		C107.787,26.945,107.799,26.958,107.815,26.967z"/>
	<path style="fill:#E4E4E4;" d="M107.036,27.268c0.083-0.061,0.167-0.121,0.316-0.113c-0.086,0.104-0.18,0.131-0.275,0.156
		C107.067,27.293,107.054,27.278,107.036,27.268z"/>
	<path style="fill:#E4E4E4;" d="M107.418,27.142c-0.009-0.009-0.016-0.016-0.024-0.024c0.015-0.007,0.029-0.017,0.044-0.021
		c0.005-0.001,0.014,0.013,0.022,0.021C107.446,27.127,107.432,27.135,107.418,27.142z"/>
	<polygon style="fill:#F8CFCF;" points="108.909,26.486 108.914,26.499 108.903,26.493 	"/>
	<path style="fill:#070505;" d="M114.752,17.519c-0.03,0.937-0.462,1.659-1.201,2.209c-0.971,0.723-2.108,1.024-3.267,1.261
		c-1.374,0.281-2.771,0.385-4.165,0.506c-0.2,0.017-0.322,0.051-0.331,0.289c-0.005,0.137-0.071,0.278-0.135,0.404
		c-0.539,1.06-1.257,1.966-2.283,2.598c-1.059,0.652-2.022,0.443-2.716-0.582c-0.467-0.689-0.713-1.459-0.814-2.278
		c-0.034-0.276-0.026-0.555,0.139-0.797c0.103-0.151,0.019-0.172-0.105-0.215c-0.627-0.216-1.222-0.498-1.757-0.896
		c-0.797-0.594-1.306-1.357-1.407-2.367c-0.022-0.22-0.006-0.414,0.26-0.443c0.248-0.027,0.325,0.154,0.342,0.356
		c0.083,1.006,0.662,1.68,1.478,2.18c0.974,0.597,2.059,0.868,3.175,1.05c2.073,0.338,4.135,0.118,6.197-0.104
		c1.194-0.129,2.382-0.3,3.525-0.693c0.606-0.209,1.19-0.465,1.679-0.895c0.515-0.453,0.805-1.011,0.787-1.71
		c-0.002-0.066-0.004-0.135,0.012-0.197c0.04-0.155,0.138-0.252,0.307-0.243c0.166,0.009,0.264,0.104,0.28,0.269
		C114.76,17.32,114.752,17.42,114.752,17.519z M100.436,21.907c0.127,0.756,0.347,1.613,0.996,2.29
		c0.349,0.364,0.776,0.465,1.238,0.256c1.175-0.531,1.917-1.48,2.466-2.607c0.076-0.157,0.018-0.21-0.152-0.207
		c-0.602,0.012-1.198,0-1.801-0.092c-0.695-0.106-1.399-0.162-2.091-0.3C100.622,21.154,100.437,21.299,100.436,21.907z"/>
	<path style="fill:#060505;" d="M108.585,15.703c-0.007,0.456-0.406,0.845-0.854,0.834c-0.465-0.011-0.835-0.396-0.827-0.858
		c0.008-0.464,0.396-0.843,0.851-0.834C108.212,14.855,108.592,15.248,108.585,15.703z"/>
	<path style="fill:#020202;" d="M105.875,15.984c-0.002,0.464-0.378,0.838-0.841,0.837c-0.464-0.001-0.834-0.376-0.832-0.843
		c0.002-0.474,0.366-0.835,0.838-0.832C105.512,15.15,105.877,15.516,105.875,15.984z"/>
	<path style="fill:#0E0E0E;" d="M113.838,4.001c2.838,0.015,5.09,2.311,5.076,5.172c-0.014,2.813-2.326,5.084-5.153,5.062
		c-2.774-0.022-5.054-2.344-5.027-5.122C108.762,6.258,111.03,3.985,113.838,4.001z M118.597,9.126
		c-0.017-2.71-2.124-4.829-4.789-4.818c-2.683,0.011-4.779,2.162-4.76,4.884c0.019,2.639,2.167,4.751,4.809,4.729
		C116.51,13.898,118.614,11.77,118.597,9.126z"/>
	<path style="fill:#0E0E0E;" d="M102.996,10.082c0.008,2.793-2.257,5.079-5.047,5.094c-2.819,0.015-5.114-2.243-5.126-5.044
		c-0.012-2.876,2.227-5.167,5.059-5.177C100.728,4.944,102.988,7.21,102.996,10.082z M93.136,10.077
		c0,2.654,2.111,4.789,4.744,4.799c2.654,0.009,4.812-2.132,4.811-4.772c-0.002-2.702-2.114-4.852-4.767-4.852
		C95.253,5.251,93.136,7.385,93.136,10.077z"/>
	<path style="fill:#FB7E7E;" d="M100.436,21.907c0.001-0.608,0.186-0.753,0.655-0.659c0.692,0.138,1.396,0.195,2.091,0.3
		c0.603,0.092,1.199,0.104,1.801,0.092c0.171-0.003,0.229,0.05,0.152,0.207c-0.549,1.127-1.291,2.076-2.466,2.607
		c-0.462,0.209-0.888,0.108-1.238-0.256C100.782,23.52,100.562,22.662,100.436,21.907z"/>
	<path style="fill:#FCFCFC;" d="M118.597,9.126c0.017,2.644-2.087,4.772-4.74,4.795c-2.642,0.022-4.79-2.09-4.809-4.729
		c-0.019-2.722,2.077-4.873,4.76-4.884C116.473,4.297,118.58,6.416,118.597,9.126z M114.842,12.798
		c1.394,0.112,2.643-0.945,2.757-2.318c0.116-1.391-0.835-2.835-2.455-2.898c-1.417-0.055-2.539,0.908-2.698,2.503
		C112.312,11.437,113.426,12.685,114.842,12.798z"/>
	<path style="fill:#FCFCFC;" d="M93.136,10.077c0-2.692,2.117-4.826,4.788-4.826c2.653,0,4.765,2.15,4.767,4.852
		c0.002,2.64-2.157,4.782-4.811,4.772C95.247,14.866,93.136,12.73,93.136,10.077z M96.709,11.1
		c-0.013,1.413,1.149,2.584,2.577,2.595c1.405,0.011,2.573-1.152,2.598-2.584c0.024-1.405-1.286-2.636-2.571-2.659
		C98.076,8.432,96.657,9.664,96.709,11.1z"/>
	<path style="fill:#020202;" d="M114.842,12.798c-1.416-0.113-2.53-1.362-2.396-2.713c0.158-1.595,1.281-2.558,2.698-2.503
		c1.62,0.063,2.571,1.507,2.455,2.898C117.485,11.853,116.236,12.91,114.842,12.798z M114.666,12.18
		c0.462-0.008,0.827-0.389,0.82-0.856c-0.007-0.47-0.382-0.833-0.849-0.822c-0.472,0.012-0.829,0.381-0.822,0.851
		C113.823,11.816,114.206,12.188,114.666,12.18z"/>
	<path style="fill:#020202;" d="M96.709,11.1c-0.052-1.437,1.367-2.669,2.604-2.647c1.285,0.022,2.595,1.253,2.571,2.659
		c-0.025,1.432-1.193,2.595-2.598,2.584C97.858,13.684,96.696,12.514,96.709,11.1z M100.609,12.043
		c-0.006-0.458-0.397-0.846-0.847-0.839c-0.458,0.007-0.842,0.396-0.837,0.85c0.005,0.458,0.394,0.843,0.848,0.837
		C100.234,12.885,100.615,12.499,100.609,12.043z"/>
	<path style="fill:#FAFAFA;" d="M114.666,12.18c-0.46,0.008-0.843-0.364-0.851-0.826c-0.007-0.47,0.35-0.84,0.822-0.851
		c0.467-0.011,0.842,0.351,0.849,0.822C115.493,11.791,115.128,12.172,114.666,12.18z"/>
	<path style="fill:#FAFAFA;" d="M100.609,12.043c0.006,0.456-0.375,0.842-0.836,0.848c-0.454,0.006-0.843-0.379-0.848-0.837
		c-0.005-0.454,0.379-0.843,0.837-0.85C100.212,11.198,100.603,11.585,100.609,12.043z"/>
</g>
<g>
	<rect x="3.322" y="-6.977" style="fill:none;" width="177.409" height="49.502"/>
	<path style="fill:#FFFFFF;" d="M13.887,29.375c-2.707,0-4.901-0.853-6.583-2.558s-2.522-3.976-2.522-6.812v-0.527
		c0-1.898,0.366-3.595,1.099-5.089s1.761-2.657,3.085-3.489s2.801-1.248,4.43-1.248c2.59,0,4.591,0.826,6.003,2.479
		s2.118,3.99,2.118,7.014v1.723H9.088c0.129,1.57,0.653,2.813,1.573,3.727s2.077,1.371,3.472,1.371c1.957,0,3.551-0.791,4.781-2.373
		l2.303,2.197c-0.762,1.137-1.778,2.019-3.05,2.646S15.469,29.375,13.887,29.375z M13.377,13.08c-1.172,0-2.118,0.41-2.839,1.23
		s-1.181,1.963-1.38,3.428h8.139v-0.316c-0.094-1.43-0.475-2.511-1.143-3.243C15.486,13.446,14.561,13.08,13.377,13.08z"/>
	<path style="fill:#FFFFFF;" d="M48.375,23.047L53.25,3.664h4.336l-7.383,25.359h-3.516L40.524,9.805l-6,19.219h-3.516L23.649,3.664
		h4.313l4.992,18.984L38.86,3.664h3.492L48.375,23.047z"/>
	<path style="fill:#FFFFFF;" d="M60.844,16.109c0-2.484,0.488-4.719,1.465-6.703s2.336-3.516,4.078-4.594s3.73-1.617,5.965-1.617
		c3.454,0,6.247,1.195,8.379,3.586s3.199,5.57,3.199,9.539v0.305c0,2.469-0.473,4.684-1.418,6.645s-2.297,3.488-4.055,4.582
		s-3.777,1.641-6.059,1.641c-3.438,0-6.223-1.195-8.355-3.586s-3.199-5.555-3.199-9.492V16.109z M65.203,16.625
		c0,2.813,0.652,5.07,1.957,6.773s3.051,2.555,5.238,2.555c2.204,0,3.954-0.863,5.25-2.59s1.945-4.145,1.945-7.254
		c0-2.781-0.66-5.035-1.98-6.762s-3.074-2.59-5.262-2.59c-2.141,0-3.867,0.852-5.18,2.555S65.203,13.453,65.203,16.625z"/>
	<path style="fill:#FFFFFF;" d="M129.094,3.664l0.117,2.813c1.859-2.188,4.367-3.281,7.523-3.281c3.547,0,5.961,1.359,7.242,4.078
		c0.844-1.219,1.941-2.203,3.293-2.953s2.949-1.125,4.793-1.125c5.563,0,8.391,2.945,8.484,8.836v16.992h-4.336V12.289
		c0-1.813-0.414-3.168-1.242-4.066s-2.219-1.348-4.172-1.348c-1.609,0-2.945,0.48-4.008,1.441s-1.68,2.254-1.852,3.879v16.828
		h-4.359V12.406c0-3.688-1.805-5.531-5.414-5.531c-2.844,0-4.789,1.211-5.836,3.633v18.516h-4.336V3.664H129.094z"/>
</g>
</svg>
